<svg width="20" height="20" viewBox="0 0 20 20" fill="none" xmlns="http://www.w3.org/2000/svg">
<path d="M16.9844 9.0625L15.625 7.70406V4.375C15.625 3.85937 15.2031 3.4375 14.6875 3.4375H13.75C13.2344 3.4375 12.8125 3.85937 12.8125 4.375V4.89344L10.9375 3.02031C10.6816 2.77844 10.4472 2.5 10 2.5C9.55281 2.5 9.31844 2.77844 9.0625 3.02031L3.01563 9.0625C2.72313 9.36719 2.5 9.58938 2.5 10C2.5 10.5278 2.905 10.9375 3.4375 10.9375H4.375V16.5625C4.375 17.0781 4.79687 17.5 5.3125 17.5H7.1875C7.70527 17.5 8.125 17.0803 8.125 16.5625V12.8125C8.125 12.2969 8.54687 11.875 9.0625 11.875H10.9375C11.4531 11.875 11.875 12.2969 11.875 12.8125V16.5625C11.875 17.0803 11.826 17.5 12.3438 17.5H14.6875C15.2031 17.5 15.625 17.0781 15.625 16.5625V10.9375H16.5625C17.095 10.9375 17.5 10.5278 17.5 10C17.5 9.58938 17.2769 9.36719 16.9844 9.0625Z" stroke="#141414" stroke-width="2" stroke-linejoin="round"/>
</svg>
